<svg width="244" height="244" viewBox="0 0 244 244" fill="none" xmlns="http://www.w3.org/2000/svg">
<path d="M47.8229 189.466C90.5033 211.763 159.707 211.763 202.387 189.466C245.068 167.169 245.068 131.018 202.387 108.717C159.707 86.415 90.5229 86.4198 47.8229 108.717C5.12286 131.013 5.1619 167.169 47.8229 189.466Z" fill="#F5F5F5"/>
<path d="M35.9266 152.9L22.0527 144.892V115.134L35.9266 123.147V152.9Z" fill="#E0E0E0"/>
<path d="M35.9277 123.147L55.7503 111.703V141.456L35.9277 152.9V123.147Z" fill="#EBEBEB"/>
<path d="M55.7491 111.703L35.9266 123.147L22.0527 115.134L41.8753 103.69L55.7491 111.703Z" fill="#F5F5F5"/>
<path d="M37.9111 124.289L53.7663 115.134L54.1322 115.344V126.368L38.2722 135.522L37.9062 135.313L37.9111 124.289Z" fill="#E0E0E0"/>
<path d="M38.2734 124.504L54.1334 115.344V126.368L38.2734 135.523V124.504Z" fill="#F5F5F5"/>
<path d="M44.4918 122.781L47.1905 121.224C47.5369 121.019 47.82 121.112 47.82 121.429C47.7948 121.623 47.7249 121.809 47.6156 121.972C47.5064 122.134 47.3608 122.269 47.1905 122.366L44.4918 123.923C44.1405 124.128 43.8574 124.035 43.8574 123.718C43.8827 123.523 43.9533 123.337 44.0634 123.174C44.1736 123.011 44.3203 122.877 44.4918 122.781Z" fill="#E0E0E0"/>
<path d="M37.5469 138.236L53.402 129.081V140.105L53.768 140.315L37.908 149.469L37.5469 149.26V138.236Z" fill="#E0E0E0"/>
<path d="M37.9062 138.446L53.7662 129.291V140.315L37.9062 149.469V138.446Z" fill="#F5F5F5"/>
<path d="M44.1237 136.728L46.8467 135.176C47.1981 134.971 47.4811 135.064 47.4811 135.381C47.4558 135.576 47.3853 135.762 47.2751 135.925C47.1649 136.087 47.0182 136.222 46.8467 136.318L44.1481 137.875C43.7967 138.08 43.5137 137.987 43.5137 137.67C43.5356 137.476 43.6021 137.291 43.7079 137.127C43.8138 136.964 43.9561 136.827 44.1237 136.728Z" fill="#E0E0E0"/>
<path d="M35.9266 121.429L22.0527 113.416V83.6627L35.9266 91.6708V121.429Z" fill="#E0E0E0"/>
<path d="M35.9277 91.6708L55.7503 80.2272V109.985L35.9277 121.429V91.6708Z" fill="#EBEBEB"/>
<path d="M55.7491 80.2272L35.9266 91.6708L22.0527 83.6627L41.8753 72.2191L55.7491 80.2272Z" fill="#F5F5F5"/>
<path d="M37.9062 92.8176L53.7663 83.6627L54.1322 83.8726V94.8965L38.2722 104.051L37.9062 103.837V92.8176Z" fill="#E0E0E0"/>
<path d="M44.4918 91.3049L47.1856 89.7481C47.5369 89.5481 47.82 89.6408 47.82 89.958C47.7939 90.1526 47.7231 90.3385 47.613 90.5011C47.5029 90.6637 47.3566 90.7985 47.1856 90.8949L44.4918 92.4517C44.1405 92.6517 43.8574 92.5639 43.8574 92.2467C43.8831 92.0513 43.9538 91.8646 44.0638 91.7012C44.1739 91.5377 44.3204 91.4021 44.4918 91.3049Z" fill="#E0E0E0"/>
<path d="M37.5469 106.765L53.402 97.6097V108.629L53.768 108.839L37.908 117.993L37.5469 117.784V106.765Z" fill="#E0E0E0"/>
<path d="M37.9062 106.974L53.7662 97.8196V108.839L37.9062 117.993V106.974Z" fill="#F5F5F5"/>
<path d="M44.1246 105.252L46.8477 103.695C47.1942 103.495 47.4821 103.588 47.4821 103.905C47.4546 104.099 47.3832 104.284 47.2732 104.447C47.1633 104.609 47.0178 104.744 46.8477 104.842L44.1246 106.384C43.7733 106.584 43.4902 106.491 43.4902 106.179C43.518 105.986 43.5897 105.802 43.6997 105.642C43.8097 105.481 43.955 105.348 44.1246 105.252Z" fill="#E0E0E0"/>
<path d="M37.9062 92.8176L53.7662 83.6627V94.6818L37.9062 103.837V92.8176Z" fill="#E0E0E0"/>
<path d="M61.6991 89.1088L53.0176 84.097V93.8082L61.6991 98.8151V89.1088Z" fill="#E0E0E0"/>
<path d="M43.8574 105.408V91.6707L47.2588 89.6992L47.82 90.5288L57.7313 84.8046V97.395L43.8574 105.408Z" fill="#EBEBEB"/>
<path d="M43.8574 105.408L44.8481 93.3886L58.7219 85.3805L57.7313 97.3951L43.8574 105.408Z" fill="#F5F5F5"/>
<path d="M45.8374 98.2637L38.2734 93.8961V103.607L45.8374 107.97V98.2637Z" fill="#EBEBEB"/>
<path d="M45.8379 97.395L61.6979 88.2401V99.2591L45.8379 108.414V97.395Z" fill="#F5F5F5"/>
<path d="M52.0543 95.6724L54.7481 94.1157C55.0994 93.9156 55.3825 94.0083 55.3825 94.3255C55.3561 94.52 55.2851 94.7058 55.175 94.8683C55.065 95.0309 54.9189 95.1658 54.7481 95.2625L52.0543 96.8192C51.703 97.0193 51.4199 96.9266 51.4199 96.6143C51.4456 96.4189 51.5163 96.2322 51.6263 96.0687C51.7364 95.9053 51.8829 95.7696 52.0543 95.6724Z" fill="#E0E0E0"/>
<path d="M45.8376 97.3951L45.3105 97.0925V108.112L45.8376 108.414V97.3951Z" fill="#E0E0E0"/>
<path d="M45.3105 97.0925L61.1657 87.9327L61.6976 88.2402L45.8376 97.3951L45.3105 97.0925Z" fill="#EBEBEB"/>
<path d="M199.836 134.873L185.957 126.86V97.1071L199.836 105.115V134.873Z" fill="#E0E0E0"/>
<path d="M199.836 105.115L219.658 93.6715V123.43L199.836 134.873V105.115Z" fill="#EBEBEB"/>
<path d="M219.658 93.6715L199.836 105.115L185.957 97.1071L205.784 85.6586L219.658 93.6715Z" fill="#F5F5F5"/>
<path d="M201.818 106.262L217.678 97.1071L218.044 97.3169L218.039 108.336L202.184 117.491L201.818 117.281V106.262Z" fill="#E0E0E0"/>
<path d="M202.184 106.472L218.044 97.3169L218.039 108.336L202.184 117.491V106.472Z" fill="#F5F5F5"/>
<path d="M208.4 104.749L211.094 103.192C211.445 102.992 211.728 103.085 211.728 103.397C211.702 103.593 211.632 103.78 211.522 103.943C211.412 104.106 211.265 104.242 211.094 104.339L208.4 105.896C208.049 106.096 207.766 106.003 207.766 105.691C207.791 105.496 207.862 105.309 207.972 105.145C208.082 104.982 208.229 104.846 208.4 104.749Z" fill="#E0E0E0"/>
<path d="M201.451 120.209L217.311 111.049V122.073L217.677 122.283L201.817 131.438L201.451 131.228V120.209Z" fill="#E0E0E0"/>
<path d="M201.818 120.419L217.678 111.264V122.283L201.818 131.438V120.419Z" fill="#F5F5F5"/>
<path d="M208.035 118.696L210.733 117.139C211.08 116.939 211.363 117.032 211.363 117.344C211.337 117.539 211.267 117.725 211.158 117.889C211.049 118.052 210.903 118.188 210.733 118.286L208.035 119.843C207.683 120.043 207.4 119.95 207.4 119.633C207.427 119.439 207.498 119.253 207.608 119.09C207.718 118.928 207.864 118.793 208.035 118.696Z" fill="#E0E0E0"/>
<path d="M67.8326 165.974C67.8326 165.974 67.8863 158.234 63.0063 152.432C58.6875 147.293 56.389 144.033 57.7505 142.53C59.112 141.027 62.04 140.666 65.988 144.824C69.9359 148.981 70.2433 160.498 69.6968 163.104L67.8326 165.974Z" fill="#094B72"/>
<path opacity="0.2" d="M67.8326 165.974C67.8326 165.974 67.8863 158.234 63.0063 152.432C58.6875 147.293 56.389 144.033 57.7505 142.53C59.112 141.027 62.04 140.666 65.988 144.824C69.9359 148.981 70.2433 160.498 69.6968 163.104L67.8326 165.974Z" fill="black"/>
<path d="M68.6519 157.653C68.5964 157.653 68.5424 157.635 68.4989 157.6C68.4554 157.566 68.4251 157.517 68.4128 157.463C66.7048 149.474 62.3226 145.058 59.8582 143.135C59.8072 143.096 59.7739 143.038 59.7657 142.974C59.7574 142.909 59.7749 142.845 59.8143 142.794C59.8547 142.742 59.9137 142.709 59.9785 142.701C60.0433 142.692 60.1088 142.71 60.1607 142.75C62.6739 144.702 67.1489 149.221 68.8911 157.36C68.8982 157.392 68.8991 157.424 68.8936 157.455C68.8881 157.487 68.8763 157.517 68.8591 157.544C68.8418 157.57 68.8193 157.593 68.7929 157.611C68.7666 157.629 68.7369 157.642 68.7056 157.648L68.6519 157.653Z" fill="white"/>
<path d="M67.6469 168.848L65.6608 169.995C65.4489 169.416 65.0916 168.901 64.6232 168.5C64.1549 168.099 63.5912 167.826 62.9865 167.706C60.8149 167.218 58.5604 167.301 57.0378 165.417C55.5153 163.534 57.3697 161.484 57.0378 160.098C56.706 158.712 56.4913 158.312 53.7682 156.926C51.0452 155.54 49.9716 153.242 52.0212 151.685C54.0708 150.128 57.3892 151.27 59.3997 152.661C61.1858 153.881 62.8841 154.203 64.88 154.452C66.8759 154.701 70.126 155.809 69.6282 160.445C69.3023 163.314 68.6372 166.135 67.6469 168.848Z" fill="#094B72"/>
<path d="M60.0239 162.758C59.9719 162.757 59.9213 162.741 59.8793 162.71C59.8373 162.679 59.8059 162.636 59.7896 162.587C59.7711 162.525 59.7776 162.458 59.8077 162.401C59.8378 162.343 59.8891 162.3 59.9507 162.28C60.1263 162.226 64.3427 160.889 66.1336 162.323C66.1781 162.365 66.2052 162.423 66.2095 162.484C66.2139 162.544 66.1952 162.605 66.1571 162.653C66.1191 162.701 66.0645 162.732 66.0041 162.742C65.9437 162.751 65.882 162.738 65.8311 162.704C64.2499 161.435 60.141 162.733 60.0971 162.748L60.0239 162.758Z" fill="white"/>
<path d="M67.8671 168.477C67.8077 168.477 67.7503 168.456 67.7061 168.416C67.6619 168.376 67.634 168.321 67.6279 168.262C66.5397 157.985 54.1591 153.11 54.0371 153.061C54.0069 153.05 53.9792 153.033 53.9557 153.01C53.9321 152.988 53.9132 152.962 53.9001 152.932C53.8869 152.903 53.8797 152.871 53.879 152.838C53.8782 152.806 53.8839 152.774 53.8956 152.744C53.9196 152.685 53.9654 152.637 54.0235 152.611C54.0817 152.584 54.1477 152.581 54.2079 152.602C54.3397 152.656 66.9936 157.634 68.1111 168.218C68.1179 168.282 68.0992 168.347 68.059 168.397C68.0188 168.447 67.9603 168.479 67.8963 168.487L67.8671 168.477Z" fill="white"/>
<path d="M189.248 162.099C189.301 161.928 191.395 151.153 189.248 143.511C187.296 136.503 184.748 133.917 181.118 133.346C177.487 132.775 175.911 135.391 177.838 138.934C179.766 142.476 184.407 147.176 185.544 155.091C186.032 158.351 186.403 161.182 186.403 161.182L189.248 162.099Z" fill="#094B72"/>
<path opacity="0.2" d="M189.248 162.099C189.301 161.928 191.395 151.153 189.248 143.511C187.296 136.503 184.748 133.917 181.118 133.346C177.487 132.775 175.911 135.391 177.838 138.934C179.766 142.476 184.407 147.176 185.544 155.091C186.032 158.351 186.403 161.182 186.403 161.182L189.248 162.099Z" fill="black"/>
<path d="M188.021 155.911C187.989 155.909 187.957 155.901 187.929 155.887C187.9 155.873 187.874 155.853 187.853 155.829C187.831 155.805 187.815 155.777 187.804 155.747C187.794 155.717 187.79 155.684 187.792 155.652C188.28 146.927 185.43 139.138 180.32 135.317C180.268 135.279 180.234 135.221 180.225 135.157C180.216 135.093 180.233 135.028 180.271 134.976C180.311 134.925 180.369 134.892 180.432 134.883C180.496 134.874 180.561 134.889 180.613 134.927C185.849 138.831 188.787 146.795 188.275 155.682C188.271 155.746 188.242 155.805 188.195 155.848C188.147 155.891 188.085 155.914 188.021 155.911Z" fill="white"/>
<path d="M194.864 167.711C194.586 165.705 195.738 162.699 198.476 161.987C201.213 161.274 202.433 159.703 201.448 157.985C200.462 156.267 200.691 154.691 203.175 153.979C205.659 153.266 207.835 152.027 206.406 149.401C205.366 147.503 205.137 146.273 207.684 142.535C209.797 139.431 208.07 137.611 205.425 137.953C202.78 138.294 201.145 141.447 199.491 141.974C197.836 142.501 197.456 139.69 195.274 140.949C193.093 142.208 193.225 145.434 193.156 147.683C193.088 149.933 192.942 150.441 190.97 150.167C188.999 149.894 187.066 150.216 187.11 154.984C187.144 159.073 189.326 164.139 189.326 164.139L194.864 167.711Z" fill="#094B72"/>
<path d="M191.404 164.661H191.379C191.314 164.654 191.254 164.621 191.213 164.57C191.172 164.518 191.153 164.453 191.16 164.388C192.536 152.095 203.086 141.725 205.839 139.622C205.89 139.582 205.956 139.565 206.02 139.574C206.085 139.582 206.143 139.616 206.183 139.668C206.222 139.72 206.239 139.785 206.231 139.85C206.222 139.914 206.188 139.973 206.136 140.012C203.418 142.086 193.004 152.319 191.648 164.441C191.64 164.501 191.612 164.557 191.567 164.597C191.522 164.638 191.464 164.66 191.404 164.661Z" fill="white"/>
<path d="M196.215 151.519C196.166 151.519 196.118 151.504 196.077 151.476C196.036 151.448 196.004 151.409 195.986 151.363C195.965 151.301 195.969 151.234 195.996 151.175C196.023 151.116 196.072 151.07 196.132 151.046C200.066 149.582 204.526 150.275 204.716 150.304C204.78 150.315 204.836 150.35 204.873 150.402C204.911 150.454 204.926 150.519 204.916 150.582C204.905 150.645 204.869 150.701 204.818 150.739C204.766 150.777 204.702 150.794 204.638 150.787C204.594 150.787 200.115 150.084 196.303 151.504C196.275 151.514 196.245 151.519 196.215 151.519Z" fill="white"/>
<path d="M192.71 158.907C192.676 158.907 192.642 158.899 192.611 158.885C192.58 158.871 192.552 158.85 192.529 158.824C190.894 156.92 189.785 154.62 189.313 152.154C189.308 152.122 189.31 152.089 189.318 152.058C189.325 152.027 189.339 151.998 189.358 151.972C189.377 151.946 189.401 151.924 189.429 151.908C189.456 151.891 189.487 151.88 189.518 151.875C189.55 151.871 189.582 151.872 189.614 151.88C189.645 151.887 189.674 151.901 189.7 151.92C189.726 151.939 189.748 151.963 189.764 151.991C189.781 152.018 189.792 152.049 189.796 152.08C190.263 154.449 191.33 156.659 192.895 158.498C192.926 158.533 192.945 158.577 192.952 158.624C192.959 158.671 192.952 158.718 192.932 158.761C192.913 158.804 192.882 158.841 192.842 158.867C192.803 158.892 192.757 158.907 192.71 158.907Z" fill="white"/>
<path d="M67.6465 93.3203V168.853L144.955 124.22L144.951 55.554L87.469 88.7428L85.4829 83.0186L67.6465 93.3203Z" fill="#094B72"/>
<path opacity="0.7" d="M67.6465 93.3203V168.853L144.955 124.22L144.951 55.554L87.469 88.7428L85.4829 83.0186L67.6465 93.3203Z" fill="black"/>
<path d="M67.6465 168.853L71.609 100.186L148.918 55.554L144.955 124.22L67.6465 168.853Z" fill="#E0E0E0"/>
<path d="M67.6465 168.853L73.5903 101.333L150.899 56.6958L144.955 124.22L67.6465 168.853Z" fill="#094B72"/>
<path opacity="0.7" d="M67.6465 168.853L73.5903 101.333L150.899 56.6958L144.955 124.22L67.6465 168.853Z" fill="black"/>
<path d="M79.5391 100.186V175.724L156.848 131.087V62.42L99.3616 95.6089L97.3803 89.8847L79.5391 100.186Z" fill="#094B72"/>
<path opacity="0.5" d="M79.5391 100.186V175.724L156.848 131.087V62.42L99.3616 95.6089L97.3803 89.8847L79.5391 100.186Z" fill="black"/>
<path d="M79.5391 175.724L83.5016 107.053L160.811 62.42L156.848 131.087L79.5391 175.724Z" fill="#E0E0E0"/>
<path d="M79.5391 175.724L85.4829 108.199L162.792 63.5619L156.848 131.086L79.5391 175.724Z" fill="#094B72"/>
<path opacity="0.5" d="M79.5391 175.724L85.4829 108.199L162.792 63.5619L156.848 131.086L79.5391 175.724Z" fill="black"/>
<path d="M144.936 199.758C131.058 191.745 118.184 183.034 112.309 172.815L130.169 162.504L144.936 199.758Z" fill="#E0E0E0"/>
<path d="M93.4121 108.199V183.732L170.721 139.099V70.433L113.235 103.622L111.253 97.8976L93.4121 108.199Z" fill="#094B72"/>
<path opacity="0.2" d="M93.4121 108.199V183.732L170.721 139.099V70.433L113.235 103.622L111.253 97.8976L93.4121 108.199Z" fill="black"/>
<path d="M115.685 130.53C115.49 130.53 115.461 130.306 115.461 130.174V65.758C115.477 65.5081 115.55 65.2653 115.675 65.0485C115.801 64.8318 115.974 64.647 116.183 64.5087L171.981 32.3007C172.057 32.2531 172.145 32.2262 172.235 32.2227C172.43 32.2227 172.459 32.4471 172.459 32.5789V96.9949C172.444 97.2455 172.371 97.4892 172.246 97.7068C172.12 97.9244 171.946 98.11 171.737 98.2491L115.939 130.457C115.862 130.502 115.775 130.528 115.685 130.53Z" fill="white"/>
<path d="M172.204 32.4471C172.208 32.4827 172.208 32.5187 172.204 32.5544V96.9704C172.188 97.1782 172.126 97.3797 172.022 97.5604C171.919 97.7411 171.776 97.8963 171.604 98.0147L115.806 130.223L115.709 130.267C115.702 130.231 115.702 130.195 115.709 130.159V65.7433C115.725 65.5364 115.788 65.3358 115.892 65.156C115.996 64.9763 116.138 64.8218 116.309 64.7039L172.107 32.4959C172.138 32.4743 172.173 32.4594 172.209 32.4519M172.239 31.9639C172.106 31.9679 171.976 32.0066 171.863 32.0762L116.065 64.2842C115.82 64.4453 115.616 64.6617 115.469 64.9159C115.322 65.1701 115.237 65.4552 115.221 65.7482V130.164C115.221 130.545 115.411 130.764 115.709 130.764C115.842 130.761 115.971 130.722 116.084 130.652L171.882 98.4442C172.129 98.2842 172.334 98.0681 172.48 97.8136C172.627 97.5592 172.712 97.2735 172.727 96.9802V32.5642C172.727 32.1835 172.536 31.9591 172.239 31.9639Z" fill="#094B72"/>
<path opacity="0.7" d="M172.204 32.4471C172.208 32.4827 172.208 32.5187 172.204 32.5544V96.9704C172.188 97.1782 172.126 97.3797 172.022 97.5604C171.919 97.7411 171.776 97.8963 171.604 98.0147L115.806 130.223L115.709 130.267C115.702 130.231 115.702 130.195 115.709 130.159V65.7433C115.725 65.5364 115.788 65.3358 115.892 65.156C115.996 64.9763 116.138 64.8218 116.309 64.7039L172.107 32.4959C172.138 32.4743 172.173 32.4594 172.209 32.4519M172.239 31.9639C172.106 31.9679 171.976 32.0066 171.863 32.0762L116.065 64.2842C115.82 64.4453 115.616 64.6617 115.469 64.9159C115.322 65.1701 115.237 65.4552 115.221 65.7482V130.164C115.221 130.545 115.411 130.764 115.709 130.764C115.842 130.761 115.971 130.722 116.084 130.652L171.882 98.4442C172.129 98.2842 172.334 98.0681 172.48 97.8136C172.627 97.5592 172.712 97.2735 172.727 96.9802V32.5642C172.727 32.1835 172.536 31.9591 172.239 31.9639Z" fill="white"/>
<path d="M121.166 68.2029L140.989 56.7593V79.6465L121.166 91.0901V68.2029Z" fill="#094B72"/>
<path opacity="0.8" d="M121.166 68.2029L140.989 56.7593V79.6465L121.166 91.0901V68.2029Z" fill="white"/>
<path d="M138.015 62.464V69.3448L137.391 69.6913V67.588C137.391 66.4265 136.449 66.0313 135.278 66.7047L126.879 71.5603C125.713 72.2337 124.766 73.7221 124.766 74.8836V76.9869L124.146 77.3578V70.4916L138.015 62.464Z" fill="white"/>
<path d="M134.199 79.9832C133.184 80.5688 132.36 79.9539 132.36 78.6022V67.588L129.807 68.9739V80.0759C129.807 81.4228 128.983 83.0039 127.968 83.5749L126.123 84.6387V85.3707L136.034 79.6465V78.9194L134.199 79.9832Z" fill="white"/>
<path d="M144.936 55.632C144.936 56.2664 145.507 56.447 146.204 56.0468L165.49 44.896C165.832 44.702 166.125 44.4315 166.345 44.1055C166.565 43.7796 166.707 43.4071 166.759 43.0172C166.759 42.3877 166.188 42.2022 165.49 42.6073L146.219 53.7337C145.871 53.9273 145.574 54.1999 145.351 54.5297C145.128 54.8595 144.986 55.2371 144.936 55.632Z" fill="#455A64"/>
<path d="M144.936 62.4639C144.936 63.0983 145.507 63.2838 146.204 62.8787L165.475 51.7523C165.818 51.5584 166.11 51.2878 166.33 50.9618C166.551 50.6359 166.692 50.2634 166.744 49.8735C166.744 49.244 166.173 49.0586 165.475 49.4636L146.204 60.59C145.863 60.7835 145.571 61.0533 145.35 61.3783C145.13 61.7034 144.988 62.0749 144.936 62.4639Z" fill="#455A64"/>
<path d="M144.936 69.3448C144.936 69.9792 145.507 70.1646 146.204 69.7596L165.475 58.6332C165.817 58.4397 166.109 58.1699 166.329 57.8449C166.549 57.5198 166.691 57.1483 166.744 56.7593C166.744 56.1249 166.173 55.9394 165.475 56.3445L146.204 67.4709C145.863 67.6643 145.571 67.9341 145.35 68.2592C145.13 68.5843 144.988 68.9558 144.936 69.3448Z" fill="#455A64"/>
<path d="M144.936 76.2109C144.936 76.8453 145.507 77.0307 146.204 76.6257L165.475 65.4993C165.817 65.3058 166.109 65.036 166.329 64.711C166.549 64.3859 166.691 64.0144 166.744 63.6254C166.744 62.991 166.173 62.8055 165.475 63.2106L146.204 74.337C145.863 74.5304 145.571 74.8002 145.35 75.1253C145.13 75.4504 144.988 75.8219 144.936 76.2109Z" fill="#455A64"/>
<path d="M121.166 96.8143C121.166 97.4487 121.732 97.6342 122.435 97.2291L165.491 72.3411C165.833 72.1482 166.126 71.8786 166.346 71.5534C166.566 71.2283 166.708 70.8564 166.76 70.4672C166.76 69.8328 166.189 69.6522 165.491 70.0524L122.435 94.9404C122.093 95.133 121.8 95.4025 121.579 95.7278C121.359 96.053 121.218 96.425 121.166 96.8143Z" fill="#455A64"/>
<path d="M121.166 103.68C121.166 104.315 121.732 104.5 122.435 104.095L165.491 79.2366C165.833 79.0426 166.126 78.7721 166.346 78.4461C166.566 78.1201 166.708 77.7476 166.76 77.3578C166.76 76.7283 166.189 76.5428 165.491 76.9478L122.435 101.807C122.093 101.999 121.8 102.269 121.579 102.594C121.359 102.919 121.218 103.291 121.166 103.68Z" fill="#455A64"/>
<path d="M121.166 110.551C121.166 111.181 121.732 111.366 122.435 110.961L165.491 86.1027C165.833 85.9087 166.126 85.6382 166.346 85.3122C166.566 84.9862 166.708 84.6137 166.76 84.2239C166.76 83.5943 166.189 83.4089 165.491 83.8139L122.435 108.673C122.092 108.866 121.799 109.136 121.578 109.462C121.358 109.788 121.217 110.161 121.166 110.551Z" fill="#455A64"/>
<path d="M93.4121 183.732L107.286 123.079L184.595 78.4412L170.721 139.1L93.4121 183.732Z" fill="#094B72"/>
<path d="M112.328 127.827V172.815L130.169 162.514V117.53L112.328 127.827Z" fill="#094B72"/>
<path opacity="0.2" d="M112.328 127.827V172.815L130.169 162.514V117.53L112.328 127.827Z" fill="black"/>
<path d="M144.969 199.465C143.451 198.333 128.821 187.153 121.384 171.161C113.469 154.159 113.479 134.327 113.479 126.865V126.631L166.514 96.014C166.514 103.544 166.514 123.405 174.464 140.466C181.73 156.082 195.799 167.121 198.029 168.809L144.969 199.465Z" fill="white"/>
<path d="M166.27 96.4531C166.27 104.3 166.422 123.781 174.244 140.588C181.267 155.667 194.618 166.51 197.59 168.799L144.984 199.172C142.929 197.625 128.851 186.631 121.609 171.078C113.703 154.125 113.703 134.332 113.703 126.88V126.787L166.251 96.4482M166.739 95.604L113.215 126.509C113.215 133.531 113.069 153.935 121.145 171.283C129.095 188.309 144.935 199.758 144.935 199.758L198.473 168.848C198.473 168.848 182.614 157.399 174.688 140.373C166.607 123.025 166.758 102.621 166.758 95.5991L166.739 95.604Z" fill="#094B72"/>
<path opacity="0.7" d="M166.27 96.4531C166.27 104.3 166.422 123.781 174.244 140.588C181.267 155.667 194.618 166.51 197.59 168.799L144.984 199.172C142.929 197.625 128.851 186.631 121.609 171.078C113.703 154.125 113.703 134.332 113.703 126.88V126.787L166.251 96.4482M166.739 95.604L113.215 126.509C113.215 133.531 113.069 153.935 121.145 171.283C129.095 188.309 144.935 199.758 144.935 199.758L198.473 168.848C198.473 168.848 182.614 157.399 174.688 140.373C166.607 123.025 166.758 102.621 166.758 95.5991L166.739 95.604Z" fill="white"/>
<path d="M160.702 105.969L143.779 115.729C143.44 115.916 143.151 116.181 142.937 116.503C142.723 116.825 142.59 117.194 142.549 117.579C142.573 118.198 143.164 118.374 143.862 117.969L160.79 108.209C161.125 108.024 161.411 107.762 161.624 107.445C161.837 107.127 161.971 106.764 162.015 106.384C161.986 105.74 161.405 105.564 160.702 105.969Z" fill="#455A64"/>
<path d="M161.064 112.63L144.14 122.39C143.805 122.57 143.521 122.832 143.315 123.151C143.108 123.47 142.986 123.836 142.959 124.215C143.013 124.816 143.628 124.977 144.325 124.572L161.254 114.812C161.587 114.632 161.869 114.371 162.073 114.053C162.277 113.734 162.397 113.369 162.42 112.991C162.372 112.386 161.766 112.24 161.064 112.63Z" fill="#455A64"/>
<path d="M161.744 119.106L144.815 128.866C144.117 129.271 143.61 130.076 143.692 130.657C143.775 131.238 144.415 131.389 145.117 130.984L162.046 121.224C162.744 120.819 163.242 120.019 163.154 119.438C163.066 118.857 162.441 118.701 161.744 119.106Z" fill="#455A64"/>
<path d="M162.758 125.387L145.829 135.147C145.132 135.552 144.648 136.342 144.766 136.908C144.883 137.475 145.546 137.601 146.23 137.196L163.153 127.436C163.856 127.031 164.325 126.246 164.207 125.68C164.09 125.113 163.48 124.982 162.758 125.387Z" fill="#455A64"/>
<path d="M164.134 131.457L147.205 141.217C146.507 141.622 146.054 142.393 146.229 142.935C146.405 143.477 147.074 143.599 147.771 143.194L164.7 133.434C165.403 133.029 165.842 132.263 165.676 131.716C165.51 131.169 164.832 131.052 164.134 131.457Z" fill="#455A64"/>
<path d="M165.921 137.309L124.665 161.128C123.967 161.533 123.543 162.284 123.733 162.807C123.923 163.329 124.65 163.426 125.348 163.021L166.604 139.202C167.307 138.797 167.712 138.05 167.521 137.523C167.331 136.996 166.594 136.903 165.921 137.309Z" fill="#455A64"/>
<path d="M168.091 142.896L126.841 166.715C126.138 167.12 125.752 167.852 125.987 168.35C126.221 168.848 126.963 168.926 127.675 168.521L168.931 144.702C169.633 144.297 170.009 143.565 169.775 143.067C169.541 142.569 168.794 142.496 168.091 142.896Z" fill="#455A64"/>
<path d="M170.798 148.22L129.543 172.039C128.84 172.445 128.494 173.157 128.772 173.63C129.05 174.104 129.845 174.153 130.548 173.747L171.774 149.928C172.472 149.528 172.809 148.82 172.531 148.347C172.253 147.874 171.482 147.815 170.798 148.22Z" fill="#455A64"/>
<path d="M173.957 153.256L132.707 177.071C132.004 177.476 131.692 178.174 132.009 178.618C132.326 179.062 133.16 179.106 133.863 178.696L175.114 154.877C175.817 154.471 176.119 153.783 175.802 153.334C175.485 152.885 174.66 152.851 173.957 153.256Z" fill="#455A64"/>
<path d="M177.558 158.044L136.302 181.858C135.604 182.263 135.326 182.941 135.677 183.366C136.029 183.79 136.893 183.81 137.595 183.405L178.851 159.576C179.549 159.171 179.827 158.502 179.466 158.078C179.105 157.653 178.26 157.624 177.558 158.044Z" fill="#455A64"/>
<path d="M181.536 162.602L140.295 186.416C139.592 186.821 139.319 187.485 139.729 187.88C140.139 188.275 141.008 188.285 141.705 187.88L182.961 164.061C183.664 163.656 183.908 163.002 183.517 162.597C183.127 162.192 182.249 162.201 181.536 162.602Z" fill="#455A64"/>
<path d="M185.927 166.959L144.671 190.774C143.973 191.179 143.744 191.828 144.183 192.213C144.622 192.599 145.52 192.584 146.223 192.179L187.444 168.36C188.142 167.955 188.362 167.32 187.932 166.93C187.503 166.54 186.61 166.554 185.927 166.959Z" fill="#455A64"/>
<path d="M137.645 119.287L118.184 130.511C118.398 137.562 119.204 147.732 122.151 157.975L141.617 146.751C138.665 136.508 137.86 126.333 137.645 119.287Z" fill="#094B72"/>
<path opacity="0.8" d="M137.645 119.287L118.184 130.511C118.398 137.562 119.204 147.732 122.151 157.975L141.617 146.751C138.665 136.508 137.86 126.333 137.645 119.287Z" fill="white"/>
<path d="M126.118 128.959C126.145 128.504 126.074 128.048 125.911 127.622C125.747 127.197 125.496 126.811 125.172 126.49L118.184 130.52C118.242 132.385 118.34 134.468 118.511 136.713C119.42 136.818 120.339 136.648 121.151 136.225C123.898 134.966 126.118 131.701 126.118 128.959Z" fill="#094B72"/>
<path opacity="0.6" d="M126.118 128.959C126.145 128.504 126.074 128.048 125.911 127.622C125.747 127.197 125.496 126.811 125.172 126.49L118.184 130.52C118.242 132.385 118.34 134.468 118.511 136.713C119.42 136.818 120.339 136.648 121.151 136.225C123.898 134.966 126.118 131.701 126.118 128.959Z" fill="white"/>
<path d="M139.961 140.017C138.663 138.382 136.023 133.331 134.896 131.131C134.852 131.044 134.782 130.972 134.697 130.925C134.611 130.878 134.514 130.857 134.417 130.866C134.319 130.875 134.227 130.913 134.152 130.975C134.076 131.037 134.021 131.12 133.993 131.214C132.774 135.382 132.066 139.684 131.885 144.024C130.26 142.733 128.863 141.179 127.752 139.427C127.704 139.359 127.639 139.306 127.562 139.274C127.486 139.242 127.402 139.233 127.32 139.247C127.239 139.262 127.163 139.299 127.102 139.355C127.041 139.411 126.997 139.483 126.976 139.563C124.848 147.757 125.917 155.818 125.917 155.818L141.616 146.751C140.962 144.487 140.42 142.233 139.961 140.017Z" fill="#094B72"/>
<path opacity="0.6" d="M139.961 140.017C138.663 138.382 136.023 133.331 134.896 131.131C134.852 131.044 134.782 130.972 134.697 130.925C134.611 130.878 134.514 130.857 134.417 130.866C134.319 130.875 134.227 130.913 134.152 130.975C134.076 131.037 134.021 131.12 133.993 131.214C132.774 135.382 132.066 139.684 131.885 144.024C130.26 142.733 128.863 141.179 127.752 139.427C127.704 139.359 127.639 139.306 127.562 139.274C127.486 139.242 127.402 139.233 127.32 139.247C127.239 139.262 127.163 139.299 127.102 139.355C127.041 139.411 126.997 139.483 126.976 139.563C124.848 147.757 125.917 155.818 125.917 155.818L141.616 146.751C140.962 144.487 140.42 142.233 139.961 140.017Z" fill="white"/>
</svg>
